<mxfile host="Electron" agent="Mozilla/5.0 (Windows NT 10.0; Win64; x64) AppleWebKit/537.36 (KHTML, like Gecko) draw.io/24.7.17 Chrome/128.0.6613.36 Electron/32.0.1 Safari/537.36" version="24.7.17">
  <diagram name="第 1 页" id="GqaYeDAcBa39iaGWTPDn">
    <mxGraphModel dx="1179" dy="1197" grid="1" gridSize="10" guides="1" tooltips="1" connect="1" arrows="1" fold="1" page="1" pageScale="1" pageWidth="827" pageHeight="1169" math="0" shadow="0">
      <root>
        <mxCell id="0" />
        <mxCell id="1" parent="0" />
        <mxCell id="_3a8YiENMzKRKPIrLzeu-1" value="" style="rounded=0;whiteSpace=wrap;html=1;" parent="1" vertex="1">
          <mxGeometry x="360" y="440" width="520" height="1280" as="geometry" />
        </mxCell>
        <mxCell id="_3a8YiENMzKRKPIrLzeu-9" value="" style="endArrow=classic;html=1;rounded=0;" parent="1" edge="1">
          <mxGeometry width="50" height="50" relative="1" as="geometry">
            <mxPoint x="280" y="480" as="sourcePoint" />
            <mxPoint x="360" y="480" as="targetPoint" />
          </mxGeometry>
        </mxCell>
        <mxCell id="_3a8YiENMzKRKPIrLzeu-17" value="&lt;span style=&quot;font-size: 18px;&quot;&gt;wfi_halt_exu_req&lt;/span&gt;" style="text;html=1;align=left;verticalAlign=middle;whiteSpace=wrap;rounded=0;" parent="1" vertex="1">
          <mxGeometry x="360" y="460" width="200" height="40" as="geometry" />
        </mxCell>
        <mxCell id="_3a8YiENMzKRKPIrLzeu-26" value="" style="endArrow=classic;html=1;rounded=0;" parent="1" edge="1">
          <mxGeometry width="50" height="50" relative="1" as="geometry">
            <mxPoint x="880" y="479.5" as="sourcePoint" />
            <mxPoint x="960" y="479.5" as="targetPoint" />
          </mxGeometry>
        </mxCell>
        <mxCell id="_3a8YiENMzKRKPIrLzeu-27" value="" style="endArrow=classic;html=1;rounded=0;" parent="1" edge="1">
          <mxGeometry width="50" height="50" relative="1" as="geometry">
            <mxPoint x="280" y="520" as="sourcePoint" />
            <mxPoint x="360" y="520" as="targetPoint" />
          </mxGeometry>
        </mxCell>
        <mxCell id="_3a8YiENMzKRKPIrLzeu-31" value="" style="endArrow=classic;html=1;rounded=0;" parent="1" edge="1">
          <mxGeometry width="50" height="50" relative="1" as="geometry">
            <mxPoint x="280" y="560" as="sourcePoint" />
            <mxPoint x="360" y="560" as="targetPoint" />
          </mxGeometry>
        </mxCell>
        <mxCell id="_3a8YiENMzKRKPIrLzeu-35" value="" style="endArrow=classic;html=1;rounded=0;" parent="1" edge="1">
          <mxGeometry width="50" height="50" relative="1" as="geometry">
            <mxPoint x="280" y="600" as="sourcePoint" />
            <mxPoint x="360" y="600" as="targetPoint" />
          </mxGeometry>
        </mxCell>
        <mxCell id="_3a8YiENMzKRKPIrLzeu-39" value="" style="endArrow=classic;html=1;rounded=0;" parent="1" edge="1">
          <mxGeometry width="50" height="50" relative="1" as="geometry">
            <mxPoint x="280" y="640" as="sourcePoint" />
            <mxPoint x="360" y="640" as="targetPoint" />
          </mxGeometry>
        </mxCell>
        <mxCell id="_3a8YiENMzKRKPIrLzeu-43" value="" style="endArrow=classic;html=1;rounded=0;" parent="1" edge="1">
          <mxGeometry width="50" height="50" relative="1" as="geometry">
            <mxPoint x="280" y="680" as="sourcePoint" />
            <mxPoint x="360" y="680" as="targetPoint" />
          </mxGeometry>
        </mxCell>
        <mxCell id="_3a8YiENMzKRKPIrLzeu-47" value="" style="endArrow=classic;html=1;rounded=0;" parent="1" edge="1">
          <mxGeometry width="50" height="50" relative="1" as="geometry">
            <mxPoint x="280" y="720" as="sourcePoint" />
            <mxPoint x="360" y="720" as="targetPoint" />
          </mxGeometry>
        </mxCell>
        <mxCell id="_3a8YiENMzKRKPIrLzeu-51" value="" style="endArrow=classic;html=1;rounded=0;" parent="1" edge="1">
          <mxGeometry width="50" height="50" relative="1" as="geometry">
            <mxPoint x="280" y="760" as="sourcePoint" />
            <mxPoint x="360" y="760" as="targetPoint" />
          </mxGeometry>
        </mxCell>
        <mxCell id="_3a8YiENMzKRKPIrLzeu-55" value="" style="endArrow=classic;html=1;rounded=0;" parent="1" edge="1">
          <mxGeometry width="50" height="50" relative="1" as="geometry">
            <mxPoint x="280" y="800" as="sourcePoint" />
            <mxPoint x="360" y="800" as="targetPoint" />
          </mxGeometry>
        </mxCell>
        <mxCell id="_3a8YiENMzKRKPIrLzeu-59" value="" style="endArrow=classic;html=1;rounded=0;" parent="1" edge="1">
          <mxGeometry width="50" height="50" relative="1" as="geometry">
            <mxPoint x="280" y="840" as="sourcePoint" />
            <mxPoint x="360" y="840" as="targetPoint" />
          </mxGeometry>
        </mxCell>
        <mxCell id="_3a8YiENMzKRKPIrLzeu-63" value="" style="endArrow=classic;html=1;rounded=0;" parent="1" edge="1">
          <mxGeometry width="50" height="50" relative="1" as="geometry">
            <mxPoint x="280" y="880" as="sourcePoint" />
            <mxPoint x="360" y="880" as="targetPoint" />
          </mxGeometry>
        </mxCell>
        <mxCell id="_3a8YiENMzKRKPIrLzeu-67" value="" style="endArrow=classic;html=1;rounded=0;" parent="1" edge="1">
          <mxGeometry width="50" height="50" relative="1" as="geometry">
            <mxPoint x="280" y="920" as="sourcePoint" />
            <mxPoint x="360" y="920" as="targetPoint" />
          </mxGeometry>
        </mxCell>
        <mxCell id="_3a8YiENMzKRKPIrLzeu-71" value="" style="endArrow=classic;html=1;rounded=0;" parent="1" edge="1">
          <mxGeometry width="50" height="50" relative="1" as="geometry">
            <mxPoint x="280" y="960" as="sourcePoint" />
            <mxPoint x="360" y="960" as="targetPoint" />
          </mxGeometry>
        </mxCell>
        <mxCell id="_3a8YiENMzKRKPIrLzeu-75" value="" style="endArrow=classic;html=1;rounded=0;" parent="1" edge="1">
          <mxGeometry width="50" height="50" relative="1" as="geometry">
            <mxPoint x="280" y="1000" as="sourcePoint" />
            <mxPoint x="360" y="1000" as="targetPoint" />
          </mxGeometry>
        </mxCell>
        <mxCell id="_3a8YiENMzKRKPIrLzeu-87" value="&lt;span style=&quot;font-size: 18px;&quot;&gt;e203_exu_disp&lt;/span&gt;" style="text;html=1;align=center;verticalAlign=middle;whiteSpace=wrap;rounded=0;" parent="1" vertex="1">
          <mxGeometry x="590" y="440" width="60" height="30" as="geometry" />
        </mxCell>
        <mxCell id="wlH1zYc57PTHNDlGmOBV-1" value="" style="endArrow=classic;html=1;rounded=0;" parent="1" edge="1">
          <mxGeometry width="50" height="50" relative="1" as="geometry">
            <mxPoint x="880" y="519.5" as="sourcePoint" />
            <mxPoint x="960" y="519.5" as="targetPoint" />
          </mxGeometry>
        </mxCell>
        <mxCell id="wlH1zYc57PTHNDlGmOBV-2" value="" style="endArrow=classic;html=1;rounded=0;" parent="1" edge="1">
          <mxGeometry width="50" height="50" relative="1" as="geometry">
            <mxPoint x="880" y="559.5" as="sourcePoint" />
            <mxPoint x="960" y="559.5" as="targetPoint" />
          </mxGeometry>
        </mxCell>
        <mxCell id="wlH1zYc57PTHNDlGmOBV-3" value="" style="endArrow=classic;html=1;rounded=0;" parent="1" edge="1">
          <mxGeometry width="50" height="50" relative="1" as="geometry">
            <mxPoint x="880" y="599.5" as="sourcePoint" />
            <mxPoint x="960" y="599.5" as="targetPoint" />
          </mxGeometry>
        </mxCell>
        <mxCell id="wlH1zYc57PTHNDlGmOBV-4" value="" style="endArrow=classic;html=1;rounded=0;" parent="1" edge="1">
          <mxGeometry width="50" height="50" relative="1" as="geometry">
            <mxPoint x="880" y="640" as="sourcePoint" />
            <mxPoint x="960" y="640" as="targetPoint" />
          </mxGeometry>
        </mxCell>
        <mxCell id="wlH1zYc57PTHNDlGmOBV-5" value="" style="endArrow=classic;html=1;rounded=0;" parent="1" edge="1">
          <mxGeometry width="50" height="50" relative="1" as="geometry">
            <mxPoint x="880" y="680" as="sourcePoint" />
            <mxPoint x="960" y="680" as="targetPoint" />
          </mxGeometry>
        </mxCell>
        <mxCell id="wlH1zYc57PTHNDlGmOBV-6" value="" style="endArrow=classic;html=1;rounded=0;" parent="1" edge="1">
          <mxGeometry width="50" height="50" relative="1" as="geometry">
            <mxPoint x="880" y="720" as="sourcePoint" />
            <mxPoint x="960" y="720" as="targetPoint" />
          </mxGeometry>
        </mxCell>
        <mxCell id="wlH1zYc57PTHNDlGmOBV-7" value="" style="endArrow=classic;html=1;rounded=0;" parent="1" edge="1">
          <mxGeometry width="50" height="50" relative="1" as="geometry">
            <mxPoint x="880" y="760" as="sourcePoint" />
            <mxPoint x="960" y="760" as="targetPoint" />
          </mxGeometry>
        </mxCell>
        <mxCell id="wlH1zYc57PTHNDlGmOBV-8" value="" style="endArrow=classic;html=1;rounded=0;" parent="1" edge="1">
          <mxGeometry width="50" height="50" relative="1" as="geometry">
            <mxPoint x="880" y="800" as="sourcePoint" />
            <mxPoint x="960" y="800" as="targetPoint" />
          </mxGeometry>
        </mxCell>
        <mxCell id="wlH1zYc57PTHNDlGmOBV-9" value="" style="endArrow=classic;html=1;rounded=0;" parent="1" edge="1">
          <mxGeometry width="50" height="50" relative="1" as="geometry">
            <mxPoint x="880" y="840" as="sourcePoint" />
            <mxPoint x="960" y="840" as="targetPoint" />
          </mxGeometry>
        </mxCell>
        <mxCell id="wlH1zYc57PTHNDlGmOBV-10" value="" style="endArrow=classic;html=1;rounded=0;" parent="1" edge="1">
          <mxGeometry width="50" height="50" relative="1" as="geometry">
            <mxPoint x="880" y="880" as="sourcePoint" />
            <mxPoint x="960" y="880" as="targetPoint" />
          </mxGeometry>
        </mxCell>
        <mxCell id="wlH1zYc57PTHNDlGmOBV-11" value="" style="endArrow=classic;html=1;rounded=0;" parent="1" edge="1">
          <mxGeometry width="50" height="50" relative="1" as="geometry">
            <mxPoint x="880" y="920" as="sourcePoint" />
            <mxPoint x="960" y="920" as="targetPoint" />
          </mxGeometry>
        </mxCell>
        <mxCell id="zMWLGIm6i4pCkFBHPuND-2" value="" style="endArrow=classic;html=1;rounded=0;" parent="1" edge="1">
          <mxGeometry width="50" height="50" relative="1" as="geometry">
            <mxPoint x="280" y="1040" as="sourcePoint" />
            <mxPoint x="360" y="1040" as="targetPoint" />
          </mxGeometry>
        </mxCell>
        <mxCell id="zMWLGIm6i4pCkFBHPuND-3" value="" style="endArrow=classic;html=1;rounded=0;" parent="1" edge="1">
          <mxGeometry width="50" height="50" relative="1" as="geometry">
            <mxPoint x="280" y="1080" as="sourcePoint" />
            <mxPoint x="360" y="1080" as="targetPoint" />
          </mxGeometry>
        </mxCell>
        <mxCell id="zMWLGIm6i4pCkFBHPuND-6" value="" style="endArrow=classic;html=1;rounded=0;" parent="1" edge="1">
          <mxGeometry width="50" height="50" relative="1" as="geometry">
            <mxPoint x="280" y="1120" as="sourcePoint" />
            <mxPoint x="360" y="1120" as="targetPoint" />
          </mxGeometry>
        </mxCell>
        <mxCell id="unABgJLcHEa5XkPhuNoP-1" value="&lt;span style=&quot;font-size: 18px;&quot;&gt;wfi_halt_exu_ack&lt;/span&gt;" style="text;html=1;align=right;verticalAlign=middle;whiteSpace=wrap;rounded=0;" parent="1" vertex="1">
          <mxGeometry x="680" y="460" width="200" height="40" as="geometry" />
        </mxCell>
        <mxCell id="unABgJLcHEa5XkPhuNoP-2" value="&lt;span style=&quot;font-size: 18px;&quot;&gt;oitf_empty&lt;/span&gt;" style="text;html=1;align=left;verticalAlign=middle;whiteSpace=wrap;rounded=0;" parent="1" vertex="1">
          <mxGeometry x="360" y="500" width="200" height="40" as="geometry" />
        </mxCell>
        <mxCell id="unABgJLcHEa5XkPhuNoP-3" value="&lt;span style=&quot;font-size: 18px;&quot;&gt;disp_i_ready&lt;/span&gt;" style="text;html=1;align=right;verticalAlign=middle;whiteSpace=wrap;rounded=0;" parent="1" vertex="1">
          <mxGeometry x="680" y="500" width="200" height="40" as="geometry" />
        </mxCell>
        <mxCell id="unABgJLcHEa5XkPhuNoP-4" value="&lt;span style=&quot;font-size: 18px;&quot;&gt;amo_wait&lt;/span&gt;" style="text;html=1;align=left;verticalAlign=middle;whiteSpace=wrap;rounded=0;" parent="1" vertex="1">
          <mxGeometry x="360" y="540" width="200" height="40" as="geometry" />
        </mxCell>
        <mxCell id="unABgJLcHEa5XkPhuNoP-5" value="&lt;span style=&quot;font-size: 18px;&quot;&gt;disp_o_alu_valid&lt;/span&gt;" style="text;html=1;align=right;verticalAlign=middle;whiteSpace=wrap;rounded=0;" parent="1" vertex="1">
          <mxGeometry x="680" y="540" width="200" height="40" as="geometry" />
        </mxCell>
        <mxCell id="unABgJLcHEa5XkPhuNoP-6" value="&lt;span style=&quot;font-size: 18px;&quot;&gt;disp_i_valid&lt;/span&gt;" style="text;html=1;align=left;verticalAlign=middle;whiteSpace=wrap;rounded=0;" parent="1" vertex="1">
          <mxGeometry x="360" y="580" width="200" height="40" as="geometry" />
        </mxCell>
        <mxCell id="unABgJLcHEa5XkPhuNoP-7" value="&lt;span style=&quot;font-size: 18px;&quot;&gt;disp_o_alu_rs1&lt;/span&gt;" style="text;html=1;align=right;verticalAlign=middle;whiteSpace=wrap;rounded=0;" parent="1" vertex="1">
          <mxGeometry x="680" y="580" width="200" height="40" as="geometry" />
        </mxCell>
        <mxCell id="unABgJLcHEa5XkPhuNoP-24" value="&lt;span style=&quot;font-size: 18px;&quot;&gt;disp_i_rs1x0&lt;/span&gt;" style="text;html=1;align=left;verticalAlign=middle;whiteSpace=wrap;rounded=0;" parent="1" vertex="1">
          <mxGeometry x="360" y="620" width="200" height="40" as="geometry" />
        </mxCell>
        <mxCell id="unABgJLcHEa5XkPhuNoP-25" value="&lt;span style=&quot;font-size: 18px;&quot;&gt;disp_o_alu_rs2&lt;/span&gt;" style="text;html=1;align=right;verticalAlign=middle;whiteSpace=wrap;rounded=0;" parent="1" vertex="1">
          <mxGeometry x="680" y="620" width="200" height="40" as="geometry" />
        </mxCell>
        <mxCell id="unABgJLcHEa5XkPhuNoP-26" value="&lt;span style=&quot;font-size: 18px;&quot;&gt;disp_i_rs2x0&lt;/span&gt;" style="text;html=1;align=left;verticalAlign=middle;whiteSpace=wrap;rounded=0;" parent="1" vertex="1">
          <mxGeometry x="360" y="660" width="200" height="40" as="geometry" />
        </mxCell>
        <mxCell id="unABgJLcHEa5XkPhuNoP-27" value="&lt;span style=&quot;font-size: 18px;&quot;&gt;disp_o_alu_rdwen&lt;/span&gt;" style="text;html=1;align=right;verticalAlign=middle;whiteSpace=wrap;rounded=0;" parent="1" vertex="1">
          <mxGeometry x="680" y="660" width="200" height="40" as="geometry" />
        </mxCell>
        <mxCell id="unABgJLcHEa5XkPhuNoP-28" value="&lt;span style=&quot;font-size: 18px;&quot;&gt;disp_i_rs1en&lt;/span&gt;" style="text;html=1;align=left;verticalAlign=middle;whiteSpace=wrap;rounded=0;" parent="1" vertex="1">
          <mxGeometry x="360" y="700" width="200" height="40" as="geometry" />
        </mxCell>
        <mxCell id="unABgJLcHEa5XkPhuNoP-29" value="&lt;span style=&quot;font-size: 18px;&quot;&gt;disp_o_alu_rdidx&lt;/span&gt;" style="text;html=1;align=right;verticalAlign=middle;whiteSpace=wrap;rounded=0;" parent="1" vertex="1">
          <mxGeometry x="680" y="700" width="200" height="40" as="geometry" />
        </mxCell>
        <mxCell id="unABgJLcHEa5XkPhuNoP-30" value="&lt;span style=&quot;font-size: 18px;&quot;&gt;disp_i_rs2en&lt;/span&gt;" style="text;html=1;align=left;verticalAlign=middle;whiteSpace=wrap;rounded=0;" parent="1" vertex="1">
          <mxGeometry x="360" y="740" width="200" height="40" as="geometry" />
        </mxCell>
        <mxCell id="unABgJLcHEa5XkPhuNoP-31" value="&lt;span style=&quot;font-size: 18px;&quot;&gt;disp_o_alu_info&lt;/span&gt;" style="text;html=1;align=right;verticalAlign=middle;whiteSpace=wrap;rounded=0;" parent="1" vertex="1">
          <mxGeometry x="680" y="740" width="200" height="40" as="geometry" />
        </mxCell>
        <mxCell id="unABgJLcHEa5XkPhuNoP-32" value="&lt;span style=&quot;font-size: 18px;&quot;&gt;disp_i_rs1idx&lt;/span&gt;" style="text;html=1;align=left;verticalAlign=middle;whiteSpace=wrap;rounded=0;" parent="1" vertex="1">
          <mxGeometry x="360" y="780" width="200" height="40" as="geometry" />
        </mxCell>
        <mxCell id="unABgJLcHEa5XkPhuNoP-33" value="&lt;span style=&quot;font-size: 18px;&quot;&gt;disp_o_alu_imm&lt;/span&gt;" style="text;html=1;align=right;verticalAlign=middle;whiteSpace=wrap;rounded=0;" parent="1" vertex="1">
          <mxGeometry x="680" y="780" width="200" height="40" as="geometry" />
        </mxCell>
        <mxCell id="unABgJLcHEa5XkPhuNoP-34" value="&lt;span style=&quot;font-size: 18px;&quot;&gt;disp_i_rs2_idx&lt;/span&gt;" style="text;html=1;align=left;verticalAlign=middle;whiteSpace=wrap;rounded=0;" parent="1" vertex="1">
          <mxGeometry x="360" y="820" width="200" height="40" as="geometry" />
        </mxCell>
        <mxCell id="unABgJLcHEa5XkPhuNoP-35" value="&lt;span style=&quot;font-size: 18px;&quot;&gt;disp_o_alu_pc&lt;/span&gt;" style="text;html=1;align=right;verticalAlign=middle;whiteSpace=wrap;rounded=0;" parent="1" vertex="1">
          <mxGeometry x="680" y="820" width="200" height="40" as="geometry" />
        </mxCell>
        <mxCell id="unABgJLcHEa5XkPhuNoP-36" value="&lt;span style=&quot;font-size: 18px;&quot;&gt;disp_i_rs1&lt;/span&gt;" style="text;html=1;align=left;verticalAlign=middle;whiteSpace=wrap;rounded=0;" parent="1" vertex="1">
          <mxGeometry x="360" y="860" width="200" height="40" as="geometry" />
        </mxCell>
        <mxCell id="unABgJLcHEa5XkPhuNoP-37" value="&lt;span style=&quot;font-size: 18px;&quot;&gt;disp_o_alu_itag&lt;/span&gt;" style="text;html=1;align=right;verticalAlign=middle;whiteSpace=wrap;rounded=0;" parent="1" vertex="1">
          <mxGeometry x="680" y="860" width="200" height="40" as="geometry" />
        </mxCell>
        <mxCell id="unABgJLcHEa5XkPhuNoP-38" value="&lt;span style=&quot;font-size: 18px;&quot;&gt;disp_i_rs2&lt;/span&gt;" style="text;html=1;align=left;verticalAlign=middle;whiteSpace=wrap;rounded=0;" parent="1" vertex="1">
          <mxGeometry x="360" y="900" width="200" height="40" as="geometry" />
        </mxCell>
        <mxCell id="unABgJLcHEa5XkPhuNoP-39" value="&lt;span style=&quot;font-size: 18px;&quot;&gt;disp_o_alu_misalgn&lt;/span&gt;" style="text;html=1;align=right;verticalAlign=middle;whiteSpace=wrap;rounded=0;" parent="1" vertex="1">
          <mxGeometry x="680" y="900" width="200" height="40" as="geometry" />
        </mxCell>
        <mxCell id="unABgJLcHEa5XkPhuNoP-40" value="&lt;span style=&quot;font-size: 18px;&quot;&gt;disp_i_rdwen&lt;/span&gt;" style="text;html=1;align=left;verticalAlign=middle;whiteSpace=wrap;rounded=0;" parent="1" vertex="1">
          <mxGeometry x="360" y="940" width="200" height="40" as="geometry" />
        </mxCell>
        <mxCell id="unABgJLcHEa5XkPhuNoP-41" value="&lt;span style=&quot;font-size: 18px;&quot;&gt;disp_o_alu_buserr&lt;/span&gt;" style="text;html=1;align=right;verticalAlign=middle;whiteSpace=wrap;rounded=0;" parent="1" vertex="1">
          <mxGeometry x="680" y="940" width="200" height="40" as="geometry" />
        </mxCell>
        <mxCell id="unABgJLcHEa5XkPhuNoP-42" value="&lt;span style=&quot;font-size: 18px;&quot;&gt;disp_i_rdidx&lt;/span&gt;" style="text;html=1;align=left;verticalAlign=middle;whiteSpace=wrap;rounded=0;" parent="1" vertex="1">
          <mxGeometry x="360" y="980" width="200" height="40" as="geometry" />
        </mxCell>
        <mxCell id="unABgJLcHEa5XkPhuNoP-43" value="&lt;span style=&quot;font-size: 18px;&quot;&gt;disp_o_alu_ilegl&lt;/span&gt;" style="text;html=1;align=right;verticalAlign=middle;whiteSpace=wrap;rounded=0;" parent="1" vertex="1">
          <mxGeometry x="680" y="980" width="200" height="40" as="geometry" />
        </mxCell>
        <mxCell id="unABgJLcHEa5XkPhuNoP-44" value="&lt;span style=&quot;font-size: 18px;&quot;&gt;disp_i_info&lt;/span&gt;" style="text;html=1;align=left;verticalAlign=middle;whiteSpace=wrap;rounded=0;" parent="1" vertex="1">
          <mxGeometry x="360" y="1020" width="200" height="40" as="geometry" />
        </mxCell>
        <mxCell id="unABgJLcHEa5XkPhuNoP-45" value="&lt;span style=&quot;font-size: 18px;&quot;&gt;disp_oitf_ena&lt;/span&gt;" style="text;html=1;align=right;verticalAlign=middle;whiteSpace=wrap;rounded=0;" parent="1" vertex="1">
          <mxGeometry x="680" y="1020" width="200" height="40" as="geometry" />
        </mxCell>
        <mxCell id="unABgJLcHEa5XkPhuNoP-46" value="&lt;span style=&quot;font-size: 18px;&quot;&gt;disp_i_imm&lt;/span&gt;" style="text;html=1;align=left;verticalAlign=middle;whiteSpace=wrap;rounded=0;" parent="1" vertex="1">
          <mxGeometry x="360" y="1060" width="200" height="40" as="geometry" />
        </mxCell>
        <mxCell id="unABgJLcHEa5XkPhuNoP-47" value="&lt;span style=&quot;font-size: 18px;&quot;&gt;disp_oitf_rs1fpu&lt;/span&gt;" style="text;html=1;align=right;verticalAlign=middle;whiteSpace=wrap;rounded=0;" parent="1" vertex="1">
          <mxGeometry x="680" y="1060" width="200" height="40" as="geometry" />
        </mxCell>
        <mxCell id="unABgJLcHEa5XkPhuNoP-48" value="&lt;span style=&quot;font-size: 18px;&quot;&gt;disp_i_pc&lt;/span&gt;" style="text;html=1;align=left;verticalAlign=middle;whiteSpace=wrap;rounded=0;" parent="1" vertex="1">
          <mxGeometry x="360" y="1100" width="200" height="40" as="geometry" />
        </mxCell>
        <mxCell id="unABgJLcHEa5XkPhuNoP-49" value="&lt;span style=&quot;font-size: 18px;&quot;&gt;disp_oitf_rs2fpu&lt;/span&gt;" style="text;html=1;align=right;verticalAlign=middle;whiteSpace=wrap;rounded=0;" parent="1" vertex="1">
          <mxGeometry x="680" y="1100" width="200" height="40" as="geometry" />
        </mxCell>
        <mxCell id="unABgJLcHEa5XkPhuNoP-50" value="" style="endArrow=classic;html=1;rounded=0;" parent="1" edge="1">
          <mxGeometry width="50" height="50" relative="1" as="geometry">
            <mxPoint x="880" y="960" as="sourcePoint" />
            <mxPoint x="960" y="960" as="targetPoint" />
          </mxGeometry>
        </mxCell>
        <mxCell id="unABgJLcHEa5XkPhuNoP-51" value="" style="endArrow=classic;html=1;rounded=0;" parent="1" edge="1">
          <mxGeometry width="50" height="50" relative="1" as="geometry">
            <mxPoint x="880" y="1000" as="sourcePoint" />
            <mxPoint x="960" y="1000" as="targetPoint" />
          </mxGeometry>
        </mxCell>
        <mxCell id="unABgJLcHEa5XkPhuNoP-52" value="" style="endArrow=classic;html=1;rounded=0;" parent="1" edge="1">
          <mxGeometry width="50" height="50" relative="1" as="geometry">
            <mxPoint x="880" y="1040" as="sourcePoint" />
            <mxPoint x="960" y="1040" as="targetPoint" />
          </mxGeometry>
        </mxCell>
        <mxCell id="unABgJLcHEa5XkPhuNoP-53" value="" style="endArrow=classic;html=1;rounded=0;" parent="1" edge="1">
          <mxGeometry width="50" height="50" relative="1" as="geometry">
            <mxPoint x="880" y="1080" as="sourcePoint" />
            <mxPoint x="960" y="1080" as="targetPoint" />
          </mxGeometry>
        </mxCell>
        <mxCell id="unABgJLcHEa5XkPhuNoP-54" value="" style="endArrow=classic;html=1;rounded=0;" parent="1" edge="1">
          <mxGeometry width="50" height="50" relative="1" as="geometry">
            <mxPoint x="880" y="1119.5" as="sourcePoint" />
            <mxPoint x="960" y="1119.5" as="targetPoint" />
          </mxGeometry>
        </mxCell>
        <mxCell id="VPASGcXaUOpt9Gc66oGN-1" value="" style="endArrow=classic;html=1;rounded=0;" edge="1" parent="1">
          <mxGeometry width="50" height="50" relative="1" as="geometry">
            <mxPoint x="280" y="1160" as="sourcePoint" />
            <mxPoint x="360" y="1160" as="targetPoint" />
          </mxGeometry>
        </mxCell>
        <mxCell id="VPASGcXaUOpt9Gc66oGN-2" value="" style="endArrow=classic;html=1;rounded=0;" edge="1" parent="1">
          <mxGeometry width="50" height="50" relative="1" as="geometry">
            <mxPoint x="280" y="1200" as="sourcePoint" />
            <mxPoint x="360" y="1200" as="targetPoint" />
          </mxGeometry>
        </mxCell>
        <mxCell id="VPASGcXaUOpt9Gc66oGN-3" value="" style="endArrow=classic;html=1;rounded=0;" edge="1" parent="1">
          <mxGeometry width="50" height="50" relative="1" as="geometry">
            <mxPoint x="280" y="1240" as="sourcePoint" />
            <mxPoint x="360" y="1240" as="targetPoint" />
          </mxGeometry>
        </mxCell>
        <mxCell id="VPASGcXaUOpt9Gc66oGN-4" value="" style="endArrow=classic;html=1;rounded=0;" edge="1" parent="1">
          <mxGeometry width="50" height="50" relative="1" as="geometry">
            <mxPoint x="280" y="1280" as="sourcePoint" />
            <mxPoint x="360" y="1280" as="targetPoint" />
          </mxGeometry>
        </mxCell>
        <mxCell id="VPASGcXaUOpt9Gc66oGN-5" value="" style="endArrow=classic;html=1;rounded=0;" edge="1" parent="1">
          <mxGeometry width="50" height="50" relative="1" as="geometry">
            <mxPoint x="280" y="1320" as="sourcePoint" />
            <mxPoint x="360" y="1320" as="targetPoint" />
          </mxGeometry>
        </mxCell>
        <mxCell id="VPASGcXaUOpt9Gc66oGN-6" value="&lt;span style=&quot;font-size: 18px;&quot;&gt;disp_i_misalgn&lt;/span&gt;" style="text;html=1;align=left;verticalAlign=middle;whiteSpace=wrap;rounded=0;" vertex="1" parent="1">
          <mxGeometry x="360" y="1140" width="200" height="40" as="geometry" />
        </mxCell>
        <mxCell id="VPASGcXaUOpt9Gc66oGN-7" value="&lt;span style=&quot;font-size: 18px;&quot;&gt;disp_oitf_rs3fpu&lt;/span&gt;" style="text;html=1;align=right;verticalAlign=middle;whiteSpace=wrap;rounded=0;" vertex="1" parent="1">
          <mxGeometry x="680" y="1140" width="200" height="40" as="geometry" />
        </mxCell>
        <mxCell id="VPASGcXaUOpt9Gc66oGN-8" value="&lt;span style=&quot;font-size: 18px;&quot;&gt;disp_i_buserr&lt;/span&gt;" style="text;html=1;align=left;verticalAlign=middle;whiteSpace=wrap;rounded=0;" vertex="1" parent="1">
          <mxGeometry x="360" y="1180" width="200" height="40" as="geometry" />
        </mxCell>
        <mxCell id="VPASGcXaUOpt9Gc66oGN-9" value="&lt;span style=&quot;font-size: 18px;&quot;&gt;disp_oitf_rdfpu&lt;/span&gt;" style="text;html=1;align=right;verticalAlign=middle;whiteSpace=wrap;rounded=0;" vertex="1" parent="1">
          <mxGeometry x="680" y="1180" width="200" height="40" as="geometry" />
        </mxCell>
        <mxCell id="VPASGcXaUOpt9Gc66oGN-10" value="&lt;span style=&quot;font-size: 18px;&quot;&gt;disp_i_ilegl&lt;/span&gt;" style="text;html=1;align=left;verticalAlign=middle;whiteSpace=wrap;rounded=0;" vertex="1" parent="1">
          <mxGeometry x="360" y="1220" width="200" height="40" as="geometry" />
        </mxCell>
        <mxCell id="VPASGcXaUOpt9Gc66oGN-11" value="&lt;span style=&quot;font-size: 18px;&quot;&gt;disp_oitf_rs1en&lt;/span&gt;" style="text;html=1;align=right;verticalAlign=middle;whiteSpace=wrap;rounded=0;" vertex="1" parent="1">
          <mxGeometry x="680" y="1220" width="200" height="40" as="geometry" />
        </mxCell>
        <mxCell id="VPASGcXaUOpt9Gc66oGN-12" value="&lt;span style=&quot;font-size: 18px;&quot;&gt;disp_o_alu_ready&lt;/span&gt;" style="text;html=1;align=left;verticalAlign=middle;whiteSpace=wrap;rounded=0;" vertex="1" parent="1">
          <mxGeometry x="360" y="1260" width="200" height="40" as="geometry" />
        </mxCell>
        <mxCell id="VPASGcXaUOpt9Gc66oGN-13" value="&lt;span style=&quot;font-size: 18px;&quot;&gt;disp_oitf_rs2en&lt;/span&gt;" style="text;html=1;align=right;verticalAlign=middle;whiteSpace=wrap;rounded=0;" vertex="1" parent="1">
          <mxGeometry x="680" y="1260" width="200" height="40" as="geometry" />
        </mxCell>
        <mxCell id="VPASGcXaUOpt9Gc66oGN-14" value="&lt;span style=&quot;font-size: 18px;&quot;&gt;disp_o_alu_longpipe&lt;/span&gt;" style="text;html=1;align=left;verticalAlign=middle;whiteSpace=wrap;rounded=0;" vertex="1" parent="1">
          <mxGeometry x="360" y="1300" width="200" height="40" as="geometry" />
        </mxCell>
        <mxCell id="VPASGcXaUOpt9Gc66oGN-15" value="&lt;span style=&quot;font-size: 18px;&quot;&gt;disp_oitf_rs3en&lt;/span&gt;" style="text;html=1;align=right;verticalAlign=middle;whiteSpace=wrap;rounded=0;" vertex="1" parent="1">
          <mxGeometry x="680" y="1300" width="200" height="40" as="geometry" />
        </mxCell>
        <mxCell id="VPASGcXaUOpt9Gc66oGN-16" value="" style="endArrow=classic;html=1;rounded=0;" edge="1" parent="1">
          <mxGeometry width="50" height="50" relative="1" as="geometry">
            <mxPoint x="880" y="1160" as="sourcePoint" />
            <mxPoint x="960" y="1160" as="targetPoint" />
          </mxGeometry>
        </mxCell>
        <mxCell id="VPASGcXaUOpt9Gc66oGN-17" value="" style="endArrow=classic;html=1;rounded=0;" edge="1" parent="1">
          <mxGeometry width="50" height="50" relative="1" as="geometry">
            <mxPoint x="880" y="1200" as="sourcePoint" />
            <mxPoint x="960" y="1200" as="targetPoint" />
          </mxGeometry>
        </mxCell>
        <mxCell id="VPASGcXaUOpt9Gc66oGN-18" value="" style="endArrow=classic;html=1;rounded=0;" edge="1" parent="1">
          <mxGeometry width="50" height="50" relative="1" as="geometry">
            <mxPoint x="880" y="1240" as="sourcePoint" />
            <mxPoint x="960" y="1240" as="targetPoint" />
          </mxGeometry>
        </mxCell>
        <mxCell id="VPASGcXaUOpt9Gc66oGN-19" value="" style="endArrow=classic;html=1;rounded=0;" edge="1" parent="1">
          <mxGeometry width="50" height="50" relative="1" as="geometry">
            <mxPoint x="880" y="1280" as="sourcePoint" />
            <mxPoint x="960" y="1280" as="targetPoint" />
          </mxGeometry>
        </mxCell>
        <mxCell id="VPASGcXaUOpt9Gc66oGN-20" value="" style="endArrow=classic;html=1;rounded=0;" edge="1" parent="1">
          <mxGeometry width="50" height="50" relative="1" as="geometry">
            <mxPoint x="880" y="1319.5" as="sourcePoint" />
            <mxPoint x="960" y="1319.5" as="targetPoint" />
          </mxGeometry>
        </mxCell>
        <mxCell id="VPASGcXaUOpt9Gc66oGN-21" value="" style="endArrow=classic;html=1;rounded=0;" edge="1" parent="1">
          <mxGeometry width="50" height="50" relative="1" as="geometry">
            <mxPoint x="280" y="1360" as="sourcePoint" />
            <mxPoint x="360" y="1360" as="targetPoint" />
          </mxGeometry>
        </mxCell>
        <mxCell id="VPASGcXaUOpt9Gc66oGN-22" value="&lt;span style=&quot;font-size: 18px;&quot;&gt;oitfrd_match_disprs1&lt;/span&gt;" style="text;html=1;align=left;verticalAlign=middle;whiteSpace=wrap;rounded=0;" vertex="1" parent="1">
          <mxGeometry x="360" y="1340" width="200" height="40" as="geometry" />
        </mxCell>
        <mxCell id="VPASGcXaUOpt9Gc66oGN-23" value="&lt;span style=&quot;font-size: 18px;&quot;&gt;disp_oitf_rdwen&lt;/span&gt;" style="text;html=1;align=right;verticalAlign=middle;whiteSpace=wrap;rounded=0;" vertex="1" parent="1">
          <mxGeometry x="680" y="1340" width="200" height="40" as="geometry" />
        </mxCell>
        <mxCell id="VPASGcXaUOpt9Gc66oGN-24" value="" style="endArrow=classic;html=1;rounded=0;" edge="1" parent="1">
          <mxGeometry width="50" height="50" relative="1" as="geometry">
            <mxPoint x="880" y="1359.5" as="sourcePoint" />
            <mxPoint x="960" y="1359.5" as="targetPoint" />
          </mxGeometry>
        </mxCell>
        <mxCell id="VPASGcXaUOpt9Gc66oGN-25" value="" style="endArrow=classic;html=1;rounded=0;" edge="1" parent="1">
          <mxGeometry width="50" height="50" relative="1" as="geometry">
            <mxPoint x="280" y="1400" as="sourcePoint" />
            <mxPoint x="360" y="1400" as="targetPoint" />
          </mxGeometry>
        </mxCell>
        <mxCell id="VPASGcXaUOpt9Gc66oGN-26" value="&lt;span style=&quot;font-size: 18px;&quot;&gt;oitfrd_match_disprs2&lt;/span&gt;" style="text;html=1;align=left;verticalAlign=middle;whiteSpace=wrap;rounded=0;" vertex="1" parent="1">
          <mxGeometry x="360" y="1380" width="200" height="40" as="geometry" />
        </mxCell>
        <mxCell id="VPASGcXaUOpt9Gc66oGN-27" value="&lt;span style=&quot;font-size: 18px;&quot;&gt;disp_oitf_rs1idx&lt;/span&gt;" style="text;html=1;align=right;verticalAlign=middle;whiteSpace=wrap;rounded=0;" vertex="1" parent="1">
          <mxGeometry x="680" y="1380" width="200" height="40" as="geometry" />
        </mxCell>
        <mxCell id="VPASGcXaUOpt9Gc66oGN-28" value="" style="endArrow=classic;html=1;rounded=0;" edge="1" parent="1">
          <mxGeometry width="50" height="50" relative="1" as="geometry">
            <mxPoint x="880" y="1399.5" as="sourcePoint" />
            <mxPoint x="960" y="1399.5" as="targetPoint" />
          </mxGeometry>
        </mxCell>
        <mxCell id="VPASGcXaUOpt9Gc66oGN-29" value="" style="endArrow=classic;html=1;rounded=0;" edge="1" parent="1">
          <mxGeometry width="50" height="50" relative="1" as="geometry">
            <mxPoint x="280" y="1440" as="sourcePoint" />
            <mxPoint x="360" y="1440" as="targetPoint" />
          </mxGeometry>
        </mxCell>
        <mxCell id="VPASGcXaUOpt9Gc66oGN-30" value="&lt;span style=&quot;font-size: 18px;&quot;&gt;oitfrd_match_disprs3&lt;/span&gt;" style="text;html=1;align=left;verticalAlign=middle;whiteSpace=wrap;rounded=0;" vertex="1" parent="1">
          <mxGeometry x="360" y="1420" width="200" height="40" as="geometry" />
        </mxCell>
        <mxCell id="VPASGcXaUOpt9Gc66oGN-31" value="&lt;span style=&quot;font-size: 18px;&quot;&gt;disp_oitf_rs2idx&lt;/span&gt;" style="text;html=1;align=right;verticalAlign=middle;whiteSpace=wrap;rounded=0;" vertex="1" parent="1">
          <mxGeometry x="680" y="1420" width="200" height="40" as="geometry" />
        </mxCell>
        <mxCell id="VPASGcXaUOpt9Gc66oGN-32" value="" style="endArrow=classic;html=1;rounded=0;" edge="1" parent="1">
          <mxGeometry width="50" height="50" relative="1" as="geometry">
            <mxPoint x="880" y="1439.5" as="sourcePoint" />
            <mxPoint x="960" y="1439.5" as="targetPoint" />
          </mxGeometry>
        </mxCell>
        <mxCell id="VPASGcXaUOpt9Gc66oGN-33" value="" style="endArrow=classic;html=1;rounded=0;" edge="1" parent="1">
          <mxGeometry width="50" height="50" relative="1" as="geometry">
            <mxPoint x="280" y="1480" as="sourcePoint" />
            <mxPoint x="360" y="1480" as="targetPoint" />
          </mxGeometry>
        </mxCell>
        <mxCell id="VPASGcXaUOpt9Gc66oGN-34" value="&lt;span style=&quot;font-size: 18px;&quot;&gt;oitfrd_match_disprd&lt;/span&gt;" style="text;html=1;align=left;verticalAlign=middle;whiteSpace=wrap;rounded=0;" vertex="1" parent="1">
          <mxGeometry x="360" y="1460" width="200" height="40" as="geometry" />
        </mxCell>
        <mxCell id="VPASGcXaUOpt9Gc66oGN-35" value="&lt;span style=&quot;font-size: 18px;&quot;&gt;disp_oitf_rs3idx&lt;/span&gt;" style="text;html=1;align=right;verticalAlign=middle;whiteSpace=wrap;rounded=0;" vertex="1" parent="1">
          <mxGeometry x="680" y="1460" width="200" height="40" as="geometry" />
        </mxCell>
        <mxCell id="VPASGcXaUOpt9Gc66oGN-36" value="" style="endArrow=classic;html=1;rounded=0;" edge="1" parent="1">
          <mxGeometry width="50" height="50" relative="1" as="geometry">
            <mxPoint x="880" y="1479.5" as="sourcePoint" />
            <mxPoint x="960" y="1479.5" as="targetPoint" />
          </mxGeometry>
        </mxCell>
        <mxCell id="VPASGcXaUOpt9Gc66oGN-37" value="" style="endArrow=classic;html=1;rounded=0;" edge="1" parent="1">
          <mxGeometry width="50" height="50" relative="1" as="geometry">
            <mxPoint x="280" y="1520" as="sourcePoint" />
            <mxPoint x="360" y="1520" as="targetPoint" />
          </mxGeometry>
        </mxCell>
        <mxCell id="VPASGcXaUOpt9Gc66oGN-38" value="&lt;span style=&quot;font-size: 18px;&quot;&gt;disp_oitf_ptr&lt;/span&gt;" style="text;html=1;align=left;verticalAlign=middle;whiteSpace=wrap;rounded=0;" vertex="1" parent="1">
          <mxGeometry x="360" y="1500" width="200" height="40" as="geometry" />
        </mxCell>
        <mxCell id="VPASGcXaUOpt9Gc66oGN-39" value="&lt;span style=&quot;font-size: 18px;&quot;&gt;disp_oitf_rdidx&lt;/span&gt;" style="text;html=1;align=right;verticalAlign=middle;whiteSpace=wrap;rounded=0;" vertex="1" parent="1">
          <mxGeometry x="680" y="1500" width="200" height="40" as="geometry" />
        </mxCell>
        <mxCell id="VPASGcXaUOpt9Gc66oGN-40" value="" style="endArrow=classic;html=1;rounded=0;" edge="1" parent="1">
          <mxGeometry width="50" height="50" relative="1" as="geometry">
            <mxPoint x="880" y="1519.5" as="sourcePoint" />
            <mxPoint x="960" y="1519.5" as="targetPoint" />
          </mxGeometry>
        </mxCell>
        <mxCell id="VPASGcXaUOpt9Gc66oGN-41" value="" style="endArrow=classic;html=1;rounded=0;" edge="1" parent="1">
          <mxGeometry width="50" height="50" relative="1" as="geometry">
            <mxPoint x="280" y="1560" as="sourcePoint" />
            <mxPoint x="360" y="1560" as="targetPoint" />
          </mxGeometry>
        </mxCell>
        <mxCell id="VPASGcXaUOpt9Gc66oGN-42" value="&lt;span style=&quot;font-size: 18px;&quot;&gt;disp_oitf_ready&lt;/span&gt;" style="text;html=1;align=left;verticalAlign=middle;whiteSpace=wrap;rounded=0;" vertex="1" parent="1">
          <mxGeometry x="360" y="1540" width="200" height="40" as="geometry" />
        </mxCell>
        <mxCell id="VPASGcXaUOpt9Gc66oGN-43" value="&lt;span style=&quot;font-size: 18px;&quot;&gt;disp_oitf_pc&lt;/span&gt;" style="text;html=1;align=right;verticalAlign=middle;whiteSpace=wrap;rounded=0;" vertex="1" parent="1">
          <mxGeometry x="680" y="1540" width="200" height="40" as="geometry" />
        </mxCell>
        <mxCell id="VPASGcXaUOpt9Gc66oGN-44" value="" style="endArrow=classic;html=1;rounded=0;" edge="1" parent="1">
          <mxGeometry width="50" height="50" relative="1" as="geometry">
            <mxPoint x="880" y="1559.5" as="sourcePoint" />
            <mxPoint x="960" y="1559.5" as="targetPoint" />
          </mxGeometry>
        </mxCell>
        <mxCell id="VPASGcXaUOpt9Gc66oGN-45" value="" style="endArrow=classic;html=1;rounded=0;" edge="1" parent="1">
          <mxGeometry width="50" height="50" relative="1" as="geometry">
            <mxPoint x="280" y="1600" as="sourcePoint" />
            <mxPoint x="360" y="1600" as="targetPoint" />
          </mxGeometry>
        </mxCell>
        <mxCell id="VPASGcXaUOpt9Gc66oGN-46" value="&lt;span style=&quot;font-size: 18px;&quot;&gt;clk&lt;/span&gt;" style="text;html=1;align=left;verticalAlign=middle;whiteSpace=wrap;rounded=0;" vertex="1" parent="1">
          <mxGeometry x="360" y="1580" width="200" height="40" as="geometry" />
        </mxCell>
        <mxCell id="VPASGcXaUOpt9Gc66oGN-47" value="&lt;span style=&quot;font-size: 18px;&quot;&gt;a&lt;/span&gt;" style="text;html=1;align=right;verticalAlign=middle;whiteSpace=wrap;rounded=0;" vertex="1" parent="1">
          <mxGeometry x="680" y="1580" width="200" height="40" as="geometry" />
        </mxCell>
        <mxCell id="VPASGcXaUOpt9Gc66oGN-48" value="" style="endArrow=classic;html=1;rounded=0;" edge="1" parent="1">
          <mxGeometry width="50" height="50" relative="1" as="geometry">
            <mxPoint x="880" y="1599.5" as="sourcePoint" />
            <mxPoint x="960" y="1599.5" as="targetPoint" />
          </mxGeometry>
        </mxCell>
        <mxCell id="VPASGcXaUOpt9Gc66oGN-49" value="" style="endArrow=classic;html=1;rounded=0;" edge="1" parent="1">
          <mxGeometry width="50" height="50" relative="1" as="geometry">
            <mxPoint x="280" y="1640" as="sourcePoint" />
            <mxPoint x="360" y="1640" as="targetPoint" />
          </mxGeometry>
        </mxCell>
        <mxCell id="VPASGcXaUOpt9Gc66oGN-50" value="&lt;span style=&quot;font-size: 18px;&quot;&gt;rst_n&lt;/span&gt;" style="text;html=1;align=left;verticalAlign=middle;whiteSpace=wrap;rounded=0;" vertex="1" parent="1">
          <mxGeometry x="360" y="1620" width="200" height="40" as="geometry" />
        </mxCell>
        <mxCell id="VPASGcXaUOpt9Gc66oGN-51" value="&lt;span style=&quot;font-size: 18px;&quot;&gt;a&lt;/span&gt;" style="text;html=1;align=right;verticalAlign=middle;whiteSpace=wrap;rounded=0;" vertex="1" parent="1">
          <mxGeometry x="680" y="1620" width="200" height="40" as="geometry" />
        </mxCell>
        <mxCell id="VPASGcXaUOpt9Gc66oGN-52" value="" style="endArrow=classic;html=1;rounded=0;" edge="1" parent="1">
          <mxGeometry width="50" height="50" relative="1" as="geometry">
            <mxPoint x="880" y="1639.5" as="sourcePoint" />
            <mxPoint x="960" y="1639.5" as="targetPoint" />
          </mxGeometry>
        </mxCell>
      </root>
    </mxGraphModel>
  </diagram>
</mxfile>
